{
  "version": "1.1.6",
  "modules": [
    {
      "id": 1,
      "plugin": "Core",
      "version": "1.1.6",
      "model": "AudioInterface",
      "params": [],
      "data": {
        "audio": {
          "driver": 7,
          "deviceName": "Expert Sleepers USB Audio",
          "offset": 0,
          "maxChannels": 8,
          "sampleRate": 48000,
          "blockSize": 1024
        }
      },
      "pos": [
        85,
        2
      ]
    },
    {
      "id": 2,
      "plugin": "Fundamental",
      "version": "1.4.0",
      "model": "VCMixer",
      "params": [
        {
          "id": 0,
          "value": 1.0
        },
        {
          "id": 1,
          "value": 1.0
        },
        {
          "id": 2,
          "value": 1.0
        },
        {
          "id": 3,
          "value": 1.0
        },
        {
          "id": 4,
          "value": 1.0
        }
      ],
      "leftModuleId": 7,
      "pos": [
        47,
        0
      ]
    },
    {
      "id": 3,
      "plugin": "Fundamental",
      "version": "1.4.0",
      "model": "VCO",
      "params": [
        {
          "id": 0,
          "value": 1.0
        },
        {
          "id": 1,
          "value": 1.0
        },
        {
          "id": 2,
          "value": 12.3122873
        },
        {
          "id": 3,
          "value": -0.267000109
        },
        {
          "id": 4,
          "value": 0.0
        },
        {
          "id": 5,
          "value": 0.5
        },
        {
          "id": 6,
          "value": 0.0
        }
      ],
      "leftModuleId": 5,
      "rightModuleId": 4,
      "pos": [
        8,
        0
      ]
    },
    {
      "id": 4,
      "plugin": "Fundamental",
      "version": "1.4.0",
      "model": "VCF",
      "params": [
        {
          "id": 0,
          "value": 0.647999644
        },
        {
          "id": 1,
          "value": 0.5
        },
        {
          "id": 2,
          "value": 0.234000027
        },
        {
          "id": 3,
          "value": -0.509000003
        },
        {
          "id": 4,
          "value": 0.0
        }
      ],
      "leftModuleId": 3,
      "rightModuleId": 6,
      "pos": [
        18,
        0
      ]
    },
    {
      "id": 5,
      "plugin": "Core",
      "version": "1.1.6",
      "model": "MIDIToCVInterface",
      "params": [],
      "rightModuleId": 3,
      "data": {
        "channels": 1,
        "polyMode": 0,
        "clockDivision": 24,
        "lastPitch": 8192,
        "lastMod": 0,
        "midi": {
          "driver": -11,
          "deviceName": "QWERTY keyboard (US)",
          "channel": -1
        }
      },
      "pos": [
        0,
        0
      ]
    },
    {
      "id": 6,
      "plugin": "Fundamental",
      "version": "1.4.0",
      "model": "ADSR",
      "params": [
        {
          "id": 0,
          "value": 0.258000046
        },
        {
          "id": 1,
          "value": 0.743000448
        },
        {
          "id": 2,
          "value": 0.5
        },
        {
          "id": 3,
          "value": 0.576500058
        }
      ],
      "leftModuleId": 4,
      "rightModuleId": 7,
      "pos": [
        26,
        0
      ]
    },
    {
      "id": 7,
      "plugin": "Fundamental",
      "version": "1.4.0",
      "model": "Scope",
      "params": [
        {
          "id": 0,
          "value": 0.0
        },
        {
          "id": 1,
          "value": 0.0
        },
        {
          "id": 2,
          "value": 1.0
        },
        {
          "id": 3,
          "value": 0.0
        },
        {
          "id": 4,
          "value": 6.0
        },
        {
          "id": 5,
          "value": 0.0
        },
        {
          "id": 6,
          "value": 0.0
        },
        {
          "id": 7,
          "value": 0.0
        }
      ],
      "leftModuleId": 6,
      "rightModuleId": 2,
      "data": {
        "lissajous": 0,
        "external": 0
      },
      "pos": [
        34,
        0
      ]
    },
    {
      "id": 8,
      "plugin": "Bogaudio",
      "version": "1.1.37",
      "model": "Bogaudio-LFO",
      "params": [
        {
          "id": 0,
          "value": -0.311999977
        },
        {
          "id": 1,
          "value": 0.0
        },
        {
          "id": 2,
          "value": 0.0
        },
        {
          "id": 3,
          "value": 0.0
        },
        {
          "id": 4,
          "value": 0.0
        },
        {
          "id": 5,
          "value": 1.0
        },
        {
          "id": 6,
          "value": 0.0
        }
      ],
      "data": {
        "offset_cv_to_smoothing": false
      },
      "pos": [
        38,
        1
      ]
    },
    {
      "id": 9,
      "plugin": "Fundamental",
      "version": "1.4.0",
      "model": "VCA",
      "params": [
        {
          "id": 0,
          "value": 1.0
        },
        {
          "id": 1,
          "value": 1.0
        }
      ],
      "pos": [
        79,
        0
      ]
    },
    {
      "id": 14,
      "plugin": "Stoermelder-P1",
      "version": "1.8.0",
      "model": "Strip",
      "params": [
        {
          "id": 0,
          "value": 0.0
        },
        {
          "id": 1,
          "value": 0.0
        },
        {
          "id": 2,
          "value": 0.0
        },
        {
          "id": 3,
          "value": 0.0
        },
        {
          "id": 4,
          "value": 0.0
        }
      ],
      "leftModuleId": 15,
      "data": {
        "panelTheme": 0,
        "mode": 0,
        "onMode": 0,
        "excludedParams": [],
        "randomExcl": 1,
        "randomParamsOnly": false
      },
      "pos": [
        68,
        3
      ]
    },
    {
      "id": 15,
      "plugin": "Valley",
      "version": "1.1.7",
      "model": "Interzone",
      "params": [
        {
          "id": 0,
          "value": 0.0
        },
        {
          "id": 1,
          "value": 1.0
        },
        {
          "id": 2,
          "value": 0.0
        },
        {
          "id": 3,
          "value": 0.0
        },
        {
          "id": 4,
          "value": 1.0
        },
        {
          "id": 5,
          "value": 0.0
        },
        {
          "id": 6,
          "value": 0.5
        },
        {
          "id": 7,
          "value": 0.0
        },
        {
          "id": 8,
          "value": 1.0
        },
        {
          "id": 9,
          "value": 0.0
        },
        {
          "id": 10,
          "value": 0.0
        },
        {
          "id": 11,
          "value": 0.270000041
        },
        {
          "id": 12,
          "value": 3.0
        },
        {
          "id": 13,
          "value": 1.0
        },
        {
          "id": 14,
          "value": 1.0
        },
        {
          "id": 15,
          "value": 0.750000238
        },
        {
          "id": 16,
          "value": 0.732000709
        },
        {
          "id": 17,
          "value": 0.822002172
        },
        {
          "id": 18,
          "value": 0.0
        },
        {
          "id": 19,
          "value": 0.0
        },
        {
          "id": 20,
          "value": 10.0
        },
        {
          "id": 21,
          "value": 0.0
        },
        {
          "id": 22,
          "value": 0.0
        },
        {
          "id": 23,
          "value": 1.0
        },
        {
          "id": 24,
          "value": 0.0
        },
        {
          "id": 25,
          "value": 0.0
        },
        {
          "id": 26,
          "value": 0.0
        },
        {
          "id": 27,
          "value": 1.0
        },
        {
          "id": 28,
          "value": 0.0
        },
        {
          "id": 29,
          "value": 0.0
        },
        {
          "id": 30,
          "value": 0.0
        },
        {
          "id": 31,
          "value": 0.0
        },
        {
          "id": 32,
          "value": 0.0
        },
        {
          "id": 33,
          "value": 0.0
        },
        {
          "id": 34,
          "value": 0.0
        },
        {
          "id": 35,
          "value": 0.0
        },
        {
          "id": 36,
          "value": 1.0
        },
        {
          "id": 37,
          "value": 0.444000125
        },
        {
          "id": 38,
          "value": 0.0
        },
        {
          "id": 39,
          "value": 0.0
        },
        {
          "id": 40,
          "value": 0.0
        },
        {
          "id": 41,
          "value": 0.0
        },
        {
          "id": 42,
          "value": 0.0
        }
      ],
      "leftModuleId": 16,
      "rightModuleId": 14,
      "data": {
        "panelStyle": 0
      },
      "pos": [
        36,
        3
      ]
    },
    {
      "id": 16,
      "plugin": "JW-Modules",
      "version": "1.0.29",
      "model": "Quantizer",
      "params": [
        {
          "id": 0,
          "value": 0.0
        },
        {
          "id": 1,
          "value": 11.0
        },
        {
          "id": 2,
          "value": 0.0
        }
      ],
      "leftModuleId": 17,
      "rightModuleId": 15,
      "data": {},
      "pos": [
        32,
        3
      ]
    },
    {
      "id": 17,
      "plugin": "Bogaudio",
      "version": "1.1.37",
      "model": "Bogaudio-Offset",
      "params": [
        {
          "id": 0,
          "value": 0.0
        },
        {
          "id": 1,
          "value": 0.316229999
        }
      ],
      "leftModuleId": 18,
      "rightModuleId": 16,
      "data": {
        "disableOutputLimit": false,
        "offset_first": false
      },
      "pos": [
        29,
        3
      ]
    },
    {
      "id": 18,
      "plugin": "Grayscale",
      "version": "1.0.2",
      "model": "Permutation12",
      "params": [
        {
          "id": 0,
          "value": 0.0
        },
        {
          "id": 1,
          "value": 0.0
        },
        {
          "id": 2,
          "value": 1.0
        },
        {
          "id": 3,
          "value": 16.0
        },
        {
          "id": 4,
          "value": 1.78400028
        }
      ],
      "leftModuleId": 19,
      "rightModuleId": 17,
      "data": {
        "bits": [
          false,
          false,
          true,
          true,
          false,
          true,
          false,
          false,
          false,
          false,
          true,
          false,
          false,
          true,
          true,
          false
        ]
      },
      "pos": [
        17,
        3
      ]
    },
    {
      "id": 19,
      "plugin": "Bogaudio",
      "version": "1.1.37",
      "model": "Bogaudio-AddrSeq",
      "params": [
        {
          "id": 0,
          "value": 4.08349752
        },
        {
          "id": 1,
          "value": 1.0
        },
        {
          "id": 2,
          "value": 0.0
        },
        {
          "id": 3,
          "value": 0.994000018
        },
        {
          "id": 4,
          "value": 1.0
        },
        {
          "id": 5,
          "value": 1.0
        },
        {
          "id": 6,
          "value": -1.0
        },
        {
          "id": 7,
          "value": 0.0
        },
        {
          "id": 8,
          "value": 0.0
        },
        {
          "id": 9,
          "value": 0.0
        },
        {
          "id": 10,
          "value": 0.0
        }
      ],
      "leftModuleId": 20,
      "rightModuleId": 18,
      "data": {
        "poly_input": 0,
        "select_on_clock": false,
        "triggered_select": false,
        "reverse_on_negative_clock": false,
        "range_offset": 0.0,
        "range_scale": 10.0
      },
      "pos": [
        11,
        3
      ]
    },
    {
      "id": 20,
      "plugin": "ImpromptuModular",
      "version": "1.1.10",
      "model": "Clocked-Clkd",
      "params": [
        {
          "id": 0,
          "value": 5.0
        },
        {
          "id": 1,
          "value": -5.0
        },
        {
          "id": 2,
          "value": 0.0
        },
        {
          "id": 3,
          "value": 120.0
        },
        {
          "id": 4,
          "value": 0.0
        },
        {
          "id": 5,
          "value": 0.0
        },
        {
          "id": 6,
          "value": 0.0
        },
        {
          "id": 7,
          "value": 0.0
        },
        {
          "id": 8,
          "value": 0.0
        },
        {
          "id": 9,
          "value": 0.0
        }
      ],
      "rightModuleId": 19,
      "data": {
        "panelTheme": 0,
        "running": true,
        "bpmDetectionMode": false,
        "resetOnStartStop": 0,
        "ppqn": 4,
        "resetClockOutputsHigh": true,
        "momentaryRunInput": true,
        "displayIndex": 3,
        "trigOuts": [
          false,
          false,
          false,
          false
        ],
        "clockMaster": -1
      },
      "pos": [
        1,
        3
      ]
    },
    {
      "id": 21,
      "plugin": "cf",
      "version": "1.1.1",
      "model": "MASTER",
      "params": [
        {
          "id": 0,
          "value": 5.0
        },
        {
          "id": 1,
          "value": 0.0
        }
      ],
      "data": {
        "onstate": 1
      },
      "pos": [
        95,
        3
      ]
    },
    {
      "id": 22,
      "plugin": "cf",
      "version": "1.1.1",
      "model": "METRO",
      "params": [
        {
          "id": 0,
          "value": 120.099998
        },
        {
          "id": 1,
          "value": 0.0
        },
        {
          "id": 2,
          "value": 0.0
        },
        {
          "id": 3,
          "value": 0.0
        }
      ],
      "rightModuleId": 23,
      "data": {
        "onstate": 1
      },
      "pos": [
        14,
        4
      ]
    },
    {
      "id": 23,
      "plugin": "cf",
      "version": "1.1.1",
      "model": "EACH",
      "params": [
        {
          "id": 0,
          "value": 3.0999999
        },
        {
          "id": 1,
          "value": 0.0
        }
      ],
      "leftModuleId": 22,
      "pos": [
        20,
        4
      ]
    },
    {
      "id": 24,
      "plugin": "cf",
      "version": "1.1.1",
      "model": "MONO",
      "params": [
        {
          "id": 0,
          "value": 0.0
        },
        {
          "id": 1,
          "value": 10.0
        },
        {
          "id": 2,
          "value": 0.0
        },
        {
          "id": 3,
          "value": 0.0
        }
      ],
      "data": {
        "solostate": 0,
        "onstate": 1
      },
      "pos": [
        74,
        3
      ]
    },
    {
      "id": 25,
      "plugin": "cf",
      "version": "1.1.1",
      "model": "STEREO",
      "params": [
        {
          "id": 0,
          "value": 0.0
        },
        {
          "id": 1,
          "value": 5.0
        },
        {
          "id": 2,
          "value": 0.0
        },
        {
          "id": 3,
          "value": 0.0
        }
      ],
      "rightModuleId": 26,
      "data": {
        "solostate": 0,
        "onstate": 1
      },
      "pos": [
        39,
        4
      ]
    },
    {
      "id": 26,
      "plugin": "cf",
      "version": "1.1.1",
      "model": "SUB",
      "params": [
        {
          "id": 0,
          "value": 0.0
        },
        {
          "id": 1,
          "value": 0.0
        },
        {
          "id": 2,
          "value": 0.0
        }
      ],
      "leftModuleId": 25,
      "rightModuleId": 27,
      "data": {
        "linkstate": 0
      },
      "pos": [
        45,
        4
      ]
    },
    {
      "id": 27,
      "plugin": "cf",
      "version": "1.1.1",
      "model": "MASTER",
      "params": [
        {
          "id": 0,
          "value": 5.0
        },
        {
          "id": 1,
          "value": 0.0
        }
      ],
      "leftModuleId": 26,
      "data": {
        "onstate": 1
      },
      "pos": [
        51,
        4
      ]
    },
    {
      "id": 28,
      "plugin": "Bogaudio",
      "version": "1.1.37",
      "model": "Bogaudio-FMOp",
      "params": [
        {
          "id": 0,
          "value": -0.5
        },
        {
          "id": 1,
          "value": 0.0
        },
        {
          "id": 2,
          "value": 0.141421005
        },
        {
          "id": 3,
          "value": 0.316229999
        },
        {
          "id": 4,
          "value": 1.0
        },
        {
          "id": 5,
          "value": 0.316229999
        },
        {
          "id": 6,
          "value": 0.0
        },
        {
          "id": 7,
          "value": 0.403504908
        },
        {
          "id": 8,
          "value": 1.0
        },
        {
          "id": 9,
          "value": 0.0
        },
        {
          "id": 10,
          "value": 0.0
        },
        {
          "id": 11,
          "value": 0.0
        }
      ],
      "rightModuleId": 29,
      "data": {
        "linearLevel": false,
        "antialias_feedback": true,
        "antialias_depth": true
      },
      "pos": [
        65,
        4
      ]
    },
    {
      "id": 29,
      "plugin": "cf",
      "version": "1.1.1",
      "model": "MONO",
      "params": [
        {
          "id": 0,
          "value": 0.0
        },
        {
          "id": 1,
          "value": 10.0
        },
        {
          "id": 2,
          "value": 0.0
        },
        {
          "id": 3,
          "value": 0.0
        }
      ],
      "leftModuleId": 28,
      "data": {
        "solostate": 0,
        "onstate": 1
      },
      "pos": [
        75,
        4
      ]
    }
  ],
  "cables": [
    {
      "id": 0,
      "outputModuleId": 5,
      "outputId": 0,
      "inputModuleId": 3,
      "inputId": 0,
      "color": "#c91847"
    },
    {
      "id": 5,
      "outputModuleId": 5,
      "outputId": 1,
      "inputModuleId": 6,
      "inputId": 4,
      "color": "#c9b70e"
    },
    {
      "id": 6,
      "outputModuleId": 6,
      "outputId": 0,
      "inputModuleId": 2,
      "inputId": 5,
      "color": "#0c8e15"
    },
    {
      "id": 8,
      "outputModuleId": 2,
      "outputId": 1,
      "inputModuleId": 7,
      "inputId": 0,
      "color": "#c9b70e"
    },
    {
      "id": 9,
      "outputModuleId": 5,
      "outputId": 6,
      "inputModuleId": 6,
      "inputId": 5,
      "color": "#c91847"
    },
    {
      "id": 1,
      "outputModuleId": 3,
      "outputId": 3,
      "inputModuleId": 4,
      "inputId": 3,
      "color": "#0c8e15"
    },
    {
      "id": 11,
      "outputModuleId": 8,
      "outputId": 4,
      "inputModuleId": 4,
      "inputId": 0,
      "color": "#c91847"
    },
    {
      "id": 21,
      "outputModuleId": 20,
      "outputId": 1,
      "inputModuleId": 18,
      "inputId": 0,
      "color": "#c9b70e"
    },
    {
      "id": 22,
      "outputModuleId": 20,
      "outputId": 2,
      "inputModuleId": 19,
      "inputId": 0,
      "color": "#0c8e15"
    },
    {
      "id": 23,
      "outputModuleId": 18,
      "outputId": 0,
      "inputModuleId": 16,
      "inputId": 2,
      "color": "#c91847"
    },
    {
      "id": 24,
      "outputModuleId": 18,
      "outputId": 2,
      "inputModuleId": 15,
      "inputId": 4,
      "color": "#c91847"
    },
    {
      "id": 25,
      "outputModuleId": 19,
      "outputId": 0,
      "inputModuleId": 18,
      "inputId": 1,
      "color": "#c9b70e"
    },
    {
      "id": 26,
      "outputModuleId": 16,
      "outputId": 0,
      "inputModuleId": 15,
      "inputId": 0,
      "color": "#0986ad"
    },
    {
      "id": 30,
      "outputModuleId": 15,
      "outputId": 5,
      "inputModuleId": 24,
      "inputId": 8,
      "color": "#0986ad"
    },
    {
      "id": 31,
      "outputModuleId": 24,
      "outputId": 3,
      "inputModuleId": 1,
      "inputId": 0,
      "color": "#c9b70e"
    },
    {
      "id": 32,
      "outputModuleId": 28,
      "outputId": 0,
      "inputModuleId": 29,
      "inputId": 8,
      "color": "#0c8e15"
    },
    {
      "id": 33,
      "outputModuleId": 29,
      "outputId": 3,
      "inputModuleId": 1,
      "inputId": 1,
      "color": "#c91847"
    }
  ]
}