{
  "version": "1.1.6",
  "modules": [
    {
      "id": 1,
      "plugin": "Core",
      "version": "1.1.6",
      "model": "AudioInterface",
      "params": [],
      "rightModuleId": 83,
      "data": {
        "audio": {
          "driver": 7,
          "deviceName": "Expert Sleepers USB Audio",
          "offset": 0,
          "maxChannels": 8,
          "sampleRate": 44100,
          "blockSize": 256
        }
      },
      "pos": [
        109,
        1
      ]
    },
    {
      "id": 2,
      "plugin": "Fundamental",
      "version": "1.4.0",
      "model": "VCMixer",
      "params": [
        {
          "id": 0,
          "value": 1.0
        },
        {
          "id": 1,
          "value": 1.0
        },
        {
          "id": 2,
          "value": 1.0
        },
        {
          "id": 3,
          "value": 1.0
        },
        {
          "id": 4,
          "value": 1.0
        }
      ],
      "leftModuleId": 7,
      "pos": [
        99,
        0
      ]
    },
    {
      "id": 3,
      "plugin": "Fundamental",
      "version": "1.4.0",
      "model": "VCO",
      "params": [
        {
          "id": 0,
          "value": 1.0
        },
        {
          "id": 1,
          "value": 1.0
        },
        {
          "id": 2,
          "value": 0.0
        },
        {
          "id": 3,
          "value": 0.0
        },
        {
          "id": 4,
          "value": 0.0
        },
        {
          "id": 5,
          "value": 0.5
        },
        {
          "id": 6,
          "value": 0.0
        }
      ],
      "leftModuleId": 5,
      "rightModuleId": 4,
      "pos": [
        60,
        0
      ]
    },
    {
      "id": 4,
      "plugin": "Fundamental",
      "version": "1.4.0",
      "model": "VCF",
      "params": [
        {
          "id": 0,
          "value": 0.0
        },
        {
          "id": 1,
          "value": 0.5
        },
        {
          "id": 2,
          "value": 0.234000027
        },
        {
          "id": 3,
          "value": 1.0
        },
        {
          "id": 4,
          "value": 0.0
        }
      ],
      "leftModuleId": 3,
      "rightModuleId": 6,
      "pos": [
        70,
        0
      ]
    },
    {
      "id": 5,
      "plugin": "Core",
      "version": "1.1.6",
      "model": "MIDIToCVInterface",
      "params": [],
      "rightModuleId": 3,
      "data": {
        "channels": 1,
        "polyMode": 0,
        "clockDivision": 24,
        "lastPitch": 8192,
        "lastMod": 0,
        "midi": {
          "driver": -11,
          "deviceName": "QWERTY keyboard (US)",
          "channel": -1
        }
      },
      "pos": [
        52,
        0
      ]
    },
    {
      "id": 6,
      "plugin": "Fundamental",
      "version": "1.4.0",
      "model": "ADSR",
      "params": [
        {
          "id": 0,
          "value": 0.258000046
        },
        {
          "id": 1,
          "value": 0.743000448
        },
        {
          "id": 2,
          "value": 0.5
        },
        {
          "id": 3,
          "value": 0.576500058
        }
      ],
      "leftModuleId": 4,
      "rightModuleId": 7,
      "pos": [
        78,
        0
      ]
    },
    {
      "id": 7,
      "plugin": "Fundamental",
      "version": "1.4.0",
      "model": "Scope",
      "params": [
        {
          "id": 0,
          "value": 0.0
        },
        {
          "id": 1,
          "value": 0.0
        },
        {
          "id": 2,
          "value": 0.0
        },
        {
          "id": 3,
          "value": 0.0
        },
        {
          "id": 4,
          "value": 14.0
        },
        {
          "id": 5,
          "value": 0.0
        },
        {
          "id": 6,
          "value": 0.0
        },
        {
          "id": 7,
          "value": 0.0
        }
      ],
      "leftModuleId": 6,
      "rightModuleId": 2,
      "data": {
        "lissajous": 0,
        "external": 0
      },
      "pos": [
        86,
        0
      ]
    },
    {
      "id": 8,
      "plugin": "Core",
      "version": "1.1.6",
      "model": "Notes",
      "params": [],
      "text": "Demo patch instructions:\n\n1. Choose an audio driver and device in the AUDIO-8 module.\n\n2. Use the QWERTY and ZXCVB rows of your keyboard to generate MIDI notes, which are converted to 1V/oct and GATE signals.\n\n3. Drag knobs up/down. Hold Ctrl (Cmd on Mac) while dragging to fine-tune. Right-click knobs to edit, or double-click to initialize.\n\n4. Drag ports to create and move cables. Stack multiple cables on outputs by holding Ctrl (Cmd on Mac) and dragging from an output.\n\n5. Right-click on an empty rack space to add new modules.",
      "pos": [
        119,
        0
      ]
    },
    {
      "id": 75,
      "plugin": "Stoermelder-P1",
      "version": "1.8.0",
      "model": "Strip",
      "params": [
        {
          "id": 0,
          "value": 0.0
        },
        {
          "id": 1,
          "value": 0.0
        },
        {
          "id": 2,
          "value": 0.0
        },
        {
          "id": 3,
          "value": 0.0
        },
        {
          "id": 4,
          "value": 0.0
        }
      ],
      "leftModuleId": 76,
      "data": {
        "panelTheme": 0,
        "mode": 0,
        "onMode": 0,
        "excludedParams": [],
        "randomExcl": 1,
        "randomParamsOnly": false
      },
      "pos": [
        88,
        1
      ]
    },
    {
      "id": 76,
      "plugin": "Valley",
      "version": "1.1.7",
      "model": "Plateau",
      "params": [
        {
          "id": 0,
          "value": 1.0
        },
        {
          "id": 1,
          "value": 0.5
        },
        {
          "id": 2,
          "value": 0.0
        },
        {
          "id": 3,
          "value": 10.0
        },
        {
          "id": 4,
          "value": 10.0
        },
        {
          "id": 5,
          "value": 0.5
        },
        {
          "id": 6,
          "value": 10.0
        },
        {
          "id": 7,
          "value": 0.549950004
        },
        {
          "id": 8,
          "value": 10.0
        },
        {
          "id": 9,
          "value": 10.0
        },
        {
          "id": 10,
          "value": 0.0
        },
        {
          "id": 11,
          "value": 0.5
        },
        {
          "id": 12,
          "value": 0.5
        },
        {
          "id": 13,
          "value": 0.0
        },
        {
          "id": 14,
          "value": 0.0
        },
        {
          "id": 15,
          "value": 0.0
        },
        {
          "id": 16,
          "value": 0.0
        },
        {
          "id": 17,
          "value": 0.0
        },
        {
          "id": 18,
          "value": 0.0
        },
        {
          "id": 19,
          "value": 0.0
        },
        {
          "id": 20,
          "value": 0.0
        },
        {
          "id": 21,
          "value": 0.0
        },
        {
          "id": 22,
          "value": 0.0
        },
        {
          "id": 23,
          "value": 0.0
        },
        {
          "id": 24,
          "value": 0.0
        },
        {
          "id": 25,
          "value": 0.0
        },
        {
          "id": 26,
          "value": 0.0
        },
        {
          "id": 27,
          "value": 0.0
        },
        {
          "id": 28,
          "value": 0.0
        },
        {
          "id": 29,
          "value": 0.0
        },
        {
          "id": 30,
          "value": 1.0
        }
      ],
      "leftModuleId": 77,
      "rightModuleId": 75,
      "data": {
        "frozen": false,
        "freezeToggle": false,
        "panelStyle": 0,
        "tuned": 0,
        "diffuseInput": 1,
        "preDelayCVSens": 0,
        "inputSensitivity": 0,
        "outputSaturation": 0
      },
      "pos": [
        76,
        1
      ]
    },
    {
      "id": 77,
      "plugin": "MindMeldModular",
      "version": "1.1.14",
      "model": "AuxExpanderJr",
      "params": [
        {
          "id": 0,
          "value": 0.0
        },
        {
          "id": 1,
          "value": 0.0
        },
        {
          "id": 2,
          "value": 0.0
        },
        {
          "id": 3,
          "value": 0.0
        },
        {
          "id": 4,
          "value": 0.00449999981
        },
        {
          "id": 5,
          "value": 0.0
        },
        {
          "id": 6,
          "value": 0.0
        },
        {
          "id": 7,
          "value": 0.0
        },
        {
          "id": 8,
          "value": 0.0120000001
        },
        {
          "id": 9,
          "value": 0.0
        },
        {
          "id": 10,
          "value": 0.0
        },
        {
          "id": 11,
          "value": 0.0
        },
        {
          "id": 12,
          "value": 0.00150000001
        },
        {
          "id": 13,
          "value": 0.0
        },
        {
          "id": 14,
          "value": 0.0
        },
        {
          "id": 15,
          "value": 0.0
        },
        {
          "id": 16,
          "value": 0.564000368
        },
        {
          "id": 17,
          "value": 0.0
        },
        {
          "id": 18,
          "value": 0.0
        },
        {
          "id": 19,
          "value": 0.0
        },
        {
          "id": 20,
          "value": 0.0
        },
        {
          "id": 21,
          "value": 0.0
        },
        {
          "id": 22,
          "value": 0.0
        },
        {
          "id": 23,
          "value": 0.0
        },
        {
          "id": 24,
          "value": 0.0
        },
        {
          "id": 25,
          "value": 0.0
        },
        {
          "id": 26,
          "value": 0.0
        },
        {
          "id": 27,
          "value": 0.0
        },
        {
          "id": 28,
          "value": 0.0
        },
        {
          "id": 29,
          "value": 0.0
        },
        {
          "id": 30,
          "value": 0.0
        },
        {
          "id": 31,
          "value": 0.0
        },
        {
          "id": 32,
          "value": 0.0
        },
        {
          "id": 33,
          "value": 0.0
        },
        {
          "id": 34,
          "value": 0.0
        },
        {
          "id": 35,
          "value": 0.0
        },
        {
          "id": 36,
          "value": 0.0
        },
        {
          "id": 37,
          "value": 0.0
        },
        {
          "id": 38,
          "value": 0.0
        },
        {
          "id": 39,
          "value": 0.0
        },
        {
          "id": 40,
          "value": 0.0
        },
        {
          "id": 41,
          "value": 0.0
        },
        {
          "id": 42,
          "value": 0.0
        },
        {
          "id": 43,
          "value": 0.0
        },
        {
          "id": 44,
          "value": 0.0
        },
        {
          "id": 45,
          "value": 0.0
        },
        {
          "id": 46,
          "value": 0.0
        },
        {
          "id": 47,
          "value": 0.0
        },
        {
          "id": 48,
          "value": 0.0
        },
        {
          "id": 49,
          "value": 0.0
        },
        {
          "id": 50,
          "value": 0.0
        },
        {
          "id": 51,
          "value": 0.0
        },
        {
          "id": 52,
          "value": 0.0
        },
        {
          "id": 53,
          "value": 0.0
        },
        {
          "id": 54,
          "value": 0.0
        },
        {
          "id": 55,
          "value": 0.0
        },
        {
          "id": 56,
          "value": 0.0
        },
        {
          "id": 57,
          "value": 0.0
        },
        {
          "id": 58,
          "value": 0.0
        },
        {
          "id": 59,
          "value": 0.0
        },
        {
          "id": 60,
          "value": 0.0
        },
        {
          "id": 61,
          "value": 0.0
        },
        {
          "id": 62,
          "value": 1.0
        },
        {
          "id": 63,
          "value": 1.0
        },
        {
          "id": 64,
          "value": 1.0
        },
        {
          "id": 65,
          "value": 1.0
        },
        {
          "id": 66,
          "value": 0.5
        },
        {
          "id": 67,
          "value": 0.5
        },
        {
          "id": 68,
          "value": 0.5
        },
        {
          "id": 69,
          "value": 0.5
        },
        {
          "id": 70,
          "value": 1.0
        },
        {
          "id": 71,
          "value": 1.0
        },
        {
          "id": 72,
          "value": 1.0
        },
        {
          "id": 73,
          "value": 1.0
        }
      ],
      "leftModuleId": 78,
      "rightModuleId": 76,
      "data": {
        "directOutsModeLocal": 50529027,
        "panLawStereoLocal": 16843009,
        "vuColorThemeLocal": 0,
        "dispColorAuxLocal": [
          0,
          0,
          0,
          0
        ],
        "auxFadeRatesAndProfiles": [
          0.0,
          0.0,
          0.0,
          0.0,
          0.0,
          0.0,
          0.0,
          0.0
        ],
        "auxLabels": "AUXAAUXBAUXCAUXD",
        "id_x0_hpfCutoffFreq": 13.0,
        "id_x0_lpfCutoffFreq": 20010.0,
        "id_x0_stereoWidth": 1.0,
        "id_x1_hpfCutoffFreq": 13.0,
        "id_x1_lpfCutoffFreq": 20010.0,
        "id_x1_stereoWidth": 1.0,
        "id_x2_hpfCutoffFreq": 13.0,
        "id_x2_lpfCutoffFreq": 20010.0,
        "id_x2_stereoWidth": 1.0,
        "id_x3_hpfCutoffFreq": 13.0,
        "id_x3_lpfCutoffFreq": 20010.0,
        "id_x3_stereoWidth": 1.0,
        "panCvLevels": [
          1.0,
          1.0,
          1.0,
          1.0
        ]
      },
      "pos": [
        46,
        1
      ]
    },
    {
      "id": 78,
      "plugin": "MindMeldModular",
      "version": "1.1.14",
      "model": "MixMasterJr",
      "params": [
        {
          "id": 0,
          "value": 0.0
        },
        {
          "id": 1,
          "value": 0.952381253
        },
        {
          "id": 2,
          "value": 0.0
        },
        {
          "id": 3,
          "value": 0.0
        },
        {
          "id": 4,
          "value": 0.595238328
        },
        {
          "id": 5,
          "value": 0.0
        },
        {
          "id": 6,
          "value": 0.0
        },
        {
          "id": 7,
          "value": 0.0
        },
        {
          "id": 8,
          "value": 1.0
        },
        {
          "id": 9,
          "value": 1.0
        },
        {
          "id": 10,
          "value": 0.5
        },
        {
          "id": 11,
          "value": 0.5
        },
        {
          "id": 12,
          "value": 0.5
        },
        {
          "id": 13,
          "value": 0.5
        },
        {
          "id": 14,
          "value": 0.5
        },
        {
          "id": 15,
          "value": 0.5
        },
        {
          "id": 16,
          "value": 0.5
        },
        {
          "id": 17,
          "value": 0.5
        },
        {
          "id": 18,
          "value": 0.5
        },
        {
          "id": 19,
          "value": 0.5
        },
        {
          "id": 20,
          "value": 0.0
        },
        {
          "id": 21,
          "value": 0.0
        },
        {
          "id": 22,
          "value": 0.0
        },
        {
          "id": 23,
          "value": 0.0
        },
        {
          "id": 24,
          "value": 0.0
        },
        {
          "id": 25,
          "value": 0.0
        },
        {
          "id": 26,
          "value": 0.0
        },
        {
          "id": 27,
          "value": 0.0
        },
        {
          "id": 28,
          "value": 0.0
        },
        {
          "id": 29,
          "value": 0.0
        },
        {
          "id": 30,
          "value": 0.0
        },
        {
          "id": 31,
          "value": 0.0
        },
        {
          "id": 32,
          "value": 0.0
        },
        {
          "id": 33,
          "value": 0.0
        },
        {
          "id": 34,
          "value": 0.0
        },
        {
          "id": 35,
          "value": 0.0
        },
        {
          "id": 36,
          "value": 0.0
        },
        {
          "id": 37,
          "value": 0.0
        },
        {
          "id": 38,
          "value": 0.0
        },
        {
          "id": 39,
          "value": 0.0
        },
        {
          "id": 40,
          "value": 0.0
        },
        {
          "id": 41,
          "value": 0.0
        },
        {
          "id": 42,
          "value": 0.0
        },
        {
          "id": 43,
          "value": 1.0
        },
        {
          "id": 44,
          "value": 0.0
        },
        {
          "id": 45,
          "value": 0.0
        },
        {
          "id": 46,
          "value": 0.0
        },
        {
          "id": 47,
          "value": 0.0
        },
        {
          "id": 48,
          "value": 0.0
        },
        {
          "id": 49,
          "value": 0.0
        },
        {
          "id": 50,
          "value": 0.0
        },
        {
          "id": 51,
          "value": 0.0
        },
        {
          "id": 52,
          "value": 13.0
        },
        {
          "id": 53,
          "value": 13.0
        },
        {
          "id": 54,
          "value": 13.0
        },
        {
          "id": 55,
          "value": 13.0
        },
        {
          "id": 56,
          "value": 13.0
        },
        {
          "id": 57,
          "value": 13.0
        },
        {
          "id": 58,
          "value": 13.0
        },
        {
          "id": 59,
          "value": 13.0
        },
        {
          "id": 60,
          "value": 20010.0
        },
        {
          "id": 61,
          "value": 20010.0
        },
        {
          "id": 62,
          "value": 20010.0
        },
        {
          "id": 63,
          "value": 20010.0
        },
        {
          "id": 64,
          "value": 20010.0
        },
        {
          "id": 65,
          "value": 20010.0
        },
        {
          "id": 66,
          "value": 20010.0
        },
        {
          "id": 67,
          "value": 20010.0
        },
        {
          "id": 68,
          "value": 13.0
        },
        {
          "id": 69,
          "value": 13.0
        },
        {
          "id": 70,
          "value": 20010.0
        },
        {
          "id": 71,
          "value": 20010.0
        }
      ],
      "leftModuleId": 79,
      "rightModuleId": 77,
      "data": {
        "trackLabels": "-01--02--03--04--05--06--07--08-GRP1GRP2",
        "panLawMono": 1,
        "panLawStereo": 1,
        "directOutsMode": 3,
        "directOutsSkipGroupedTracks": 0,
        "auxSendsMode": 3,
        "groupsControlTrackSendLevels": 0,
        "auxReturnsMutedWhenMainSolo": 0,
        "auxReturnsSolosMuteDry": 0,
        "chainMode": 0,
        "colorAndCloak": 117440512,
        "symmetricalFade": false,
        "fadeCvOutsWithVolCv": false,
        "linkBitMask": 0,
        "filterPos": 1,
        "groupedAuxReturnFeedbackProtection": 1,
        "ecoMode": 65535,
        "faders": [
          0.0,
          0.952381253,
          0.0,
          0.0,
          0.595238328,
          0.0,
          0.0,
          0.0,
          1.0,
          1.0
        ],
        "momentaryCvButtons": 1,
        "masterFaderScalesSends": 0,
        "linearVolCvInputs": 0,
        "id_t0_gainAdjust": 1.0,
        "id_t0_fadeRate": 0.0,
        "id_t0_fadeProfile": 0.0,
        "id_t0_directOutsMode": 3,
        "id_t0_auxSendsMode": 3,
        "id_t0_panLawStereo": 1,
        "id_t0_vuColorThemeLocal": 0,
        "id_t0_filterPos": 1,
        "id_t0_dispColorLocal": 0,
        "id_t0_polyStereo": 0,
        "id_t0_panCvLevel": 1.0,
        "id_t0_stereoWidth": 1.0,
        "id_t0_invertInput": 0,
        "id_t1_gainAdjust": 1.0,
        "id_t1_fadeRate": 0.0,
        "id_t1_fadeProfile": 0.0,
        "id_t1_directOutsMode": 3,
        "id_t1_auxSendsMode": 3,
        "id_t1_panLawStereo": 1,
        "id_t1_vuColorThemeLocal": 0,
        "id_t1_filterPos": 1,
        "id_t1_dispColorLocal": 0,
        "id_t1_polyStereo": 0,
        "id_t1_panCvLevel": 1.0,
        "id_t1_stereoWidth": 1.0,
        "id_t1_invertInput": 0,
        "id_t2_gainAdjust": 1.0,
        "id_t2_fadeRate": 0.0,
        "id_t2_fadeProfile": 0.0,
        "id_t2_directOutsMode": 3,
        "id_t2_auxSendsMode": 3,
        "id_t2_panLawStereo": 1,
        "id_t2_vuColorThemeLocal": 0,
        "id_t2_filterPos": 1,
        "id_t2_dispColorLocal": 0,
        "id_t2_polyStereo": 0,
        "id_t2_panCvLevel": 1.0,
        "id_t2_stereoWidth": 1.0,
        "id_t2_invertInput": 0,
        "id_t3_gainAdjust": 1.0,
        "id_t3_fadeRate": 0.0,
        "id_t3_fadeProfile": 0.0,
        "id_t3_directOutsMode": 3,
        "id_t3_auxSendsMode": 3,
        "id_t3_panLawStereo": 1,
        "id_t3_vuColorThemeLocal": 0,
        "id_t3_filterPos": 1,
        "id_t3_dispColorLocal": 0,
        "id_t3_polyStereo": 0,
        "id_t3_panCvLevel": 1.0,
        "id_t3_stereoWidth": 1.0,
        "id_t3_invertInput": 0,
        "id_t4_gainAdjust": 1.0,
        "id_t4_fadeRate": 0.0,
        "id_t4_fadeProfile": 0.0,
        "id_t4_directOutsMode": 3,
        "id_t4_auxSendsMode": 3,
        "id_t4_panLawStereo": 1,
        "id_t4_vuColorThemeLocal": 0,
        "id_t4_filterPos": 1,
        "id_t4_dispColorLocal": 0,
        "id_t4_polyStereo": 0,
        "id_t4_panCvLevel": 1.0,
        "id_t4_stereoWidth": 1.0,
        "id_t4_invertInput": 0,
        "id_t5_gainAdjust": 1.0,
        "id_t5_fadeRate": 0.0,
        "id_t5_fadeProfile": 0.0,
        "id_t5_directOutsMode": 3,
        "id_t5_auxSendsMode": 3,
        "id_t5_panLawStereo": 1,
        "id_t5_vuColorThemeLocal": 0,
        "id_t5_filterPos": 1,
        "id_t5_dispColorLocal": 0,
        "id_t5_polyStereo": 0,
        "id_t5_panCvLevel": 1.0,
        "id_t5_stereoWidth": 1.0,
        "id_t5_invertInput": 0,
        "id_t6_gainAdjust": 1.0,
        "id_t6_fadeRate": 0.0,
        "id_t6_fadeProfile": 0.0,
        "id_t6_directOutsMode": 3,
        "id_t6_auxSendsMode": 3,
        "id_t6_panLawStereo": 1,
        "id_t6_vuColorThemeLocal": 0,
        "id_t6_filterPos": 1,
        "id_t6_dispColorLocal": 0,
        "id_t6_polyStereo": 0,
        "id_t6_panCvLevel": 1.0,
        "id_t6_stereoWidth": 1.0,
        "id_t6_invertInput": 0,
        "id_t7_gainAdjust": 1.0,
        "id_t7_fadeRate": 0.0,
        "id_t7_fadeProfile": 0.0,
        "id_t7_directOutsMode": 3,
        "id_t7_auxSendsMode": 3,
        "id_t7_panLawStereo": 1,
        "id_t7_vuColorThemeLocal": 0,
        "id_t7_filterPos": 1,
        "id_t7_dispColorLocal": 0,
        "id_t7_polyStereo": 0,
        "id_t7_panCvLevel": 1.0,
        "id_t7_stereoWidth": 1.0,
        "id_t7_invertInput": 0,
        "id_g0_fadeRate": 0.0,
        "id_g0_fadeProfile": 0.0,
        "id_g0_directOutsMode": 3,
        "id_g0_auxSendsMode": 3,
        "id_g0_panLawStereo": 1,
        "id_g0_vuColorThemeLocal": 0,
        "id_g0_filterPos": 1,
        "id_g0_dispColorLocal": 0,
        "id_g0_panCvLevel": 1.0,
        "id_g0_stereoWidth": 1.0,
        "id_g1_fadeRate": 0.0,
        "id_g1_fadeProfile": 0.0,
        "id_g1_directOutsMode": 3,
        "id_g1_auxSendsMode": 3,
        "id_g1_panLawStereo": 1,
        "id_g1_vuColorThemeLocal": 0,
        "id_g1_filterPos": 1,
        "id_g1_dispColorLocal": 0,
        "id_g1_panCvLevel": 1.0,
        "id_g1_stereoWidth": 1.0,
        "dcBlock": false,
        "clipping": 0,
        "fadeRate": 0.0,
        "fadeProfile": 0.0,
        "vuColorThemeLocal": 0,
        "dispColorLocal": 0,
        "chainOnly": 0,
        "dimGain": 0.251190007,
        "masterLabel": "MASTER"
      },
      "pos": [
        10,
        1
      ]
    },
    {
      "id": 79,
      "plugin": "Core",
      "version": "1.1.6",
      "model": "MIDI-Map",
      "params": [],
      "rightModuleId": 78,
      "data": {
        "maps": [
          {
            "cc": 41,
            "moduleId": 78,
            "paramId": 0
          },
          {
            "cc": 42,
            "moduleId": 78,
            "paramId": 1
          },
          {
            "cc": 43,
            "moduleId": 78,
            "paramId": 2
          },
          {
            "cc": 44,
            "moduleId": 78,
            "paramId": 3
          },
          {
            "cc": 45,
            "moduleId": 78,
            "paramId": 4
          },
          {
            "cc": 46,
            "moduleId": 78,
            "paramId": 5
          },
          {
            "cc": 47,
            "moduleId": 78,
            "paramId": 6
          },
          {
            "cc": 48,
            "moduleId": 78,
            "paramId": 7
          },
          {
            "cc": -1,
            "moduleId": -1,
            "paramId": 0
          }
        ],
        "midi": {
          "driver": 4,
          "channel": -1
        }
      },
      "pos": [
        0,
        1
      ]
    },
    {
      "id": 81,
      "plugin": "NYSTHI",
      "version": "1.0.17",
      "model": "Simpliciter",
      "params": [
        {
          "id": 0,
          "value": 1.0
        },
        {
          "id": 1,
          "value": 0.0
        },
        {
          "id": 2,
          "value": 0.0
        },
        {
          "id": 3,
          "value": 0.0
        },
        {
          "id": 4,
          "value": 1.0
        },
        {
          "id": 5,
          "value": 0.0
        },
        {
          "id": 6,
          "value": 0.0
        },
        {
          "id": 7,
          "value": 0.0
        },
        {
          "id": 8,
          "value": 0.0
        },
        {
          "id": 9,
          "value": 0.0
        },
        {
          "id": 10,
          "value": 0.725353777
        },
        {
          "id": 11,
          "value": 0.760499358
        },
        {
          "id": 12,
          "value": 3.30499816
        },
        {
          "id": 13,
          "value": 0.0
        },
        {
          "id": 14,
          "value": 1.0
        },
        {
          "id": 15,
          "value": 1.0
        },
        {
          "id": 16,
          "value": 0.0
        },
        {
          "id": 17,
          "value": 0.0
        },
        {
          "id": 18,
          "value": 0.0
        },
        {
          "id": 19,
          "value": 0.0
        },
        {
          "id": 20,
          "value": 0.0
        },
        {
          "id": 21,
          "value": 0.0
        },
        {
          "id": 22,
          "value": 0.0
        },
        {
          "id": 23,
          "value": 0.0
        },
        {
          "id": 24,
          "value": 0.0
        },
        {
          "id": 25,
          "value": 0.0
        },
        {
          "id": 26,
          "value": 0.0
        },
        {
          "id": 27,
          "value": 0.0
        },
        {
          "id": 28,
          "value": 1.0
        },
        {
          "id": 29,
          "value": 0.0
        },
        {
          "id": 30,
          "value": 1.0
        },
        {
          "id": 31,
          "value": 1.0
        },
        {
          "id": 32,
          "value": 1.0
        },
        {
          "id": 33,
          "value": 0.0
        },
        {
          "id": 34,
          "value": 0.0
        },
        {
          "id": 35,
          "value": 0.0
        },
        {
          "id": 36,
          "value": 0.5
        },
        {
          "id": 37,
          "value": 0.0
        },
        {
          "id": 38,
          "value": 0.0
        }
      ],
      "data": {
        "m_declick_starts": true,
        "m_declick_ends": true,
        "m_declick_starts_linear": false,
        "m_declick_ends_linear": false,
        "m_wants_xfading_startend": false,
        "m_wants_START_STOP_smoothers": true,
        "m_autoplay_on_load": true,
        "m_dragging_scratches": false,
        "m_smoothing_seconds": 1.0,
        "m_original_file_name": "D:\\vcv_loops.vol1\\20210526_014425_MWZsXj_ytbeat",
        "m_cycled": true,
        "m_waveform": 0,
        "m_grid_mode": true,
        "m_peak_grid_mode": true,
        "m_slices": 1,
        "m_curr_slice": 1,
        "m_show_channels": 0,
        "m_video_inverted": false,
        "m_show_time_mode": 0,
        "slice_start": 0,
        "slice_end": 1,
        "m_delays_at_work": 1,
        "m_cv_can_be_negative": false,
        "m_busy_mode": false,
        "m_start_and_lenght_mode": false,
        "m_peak_threshold": 5,
        "m_peak_msecs_closeness": 200,
        "m_peakCV_mutiplier": 10,
        "m_peakCV_smoother": 1,
        "m_select_old_style": false,
        "m_prerecording_mode": false,
        "m_prerecording_time": 2.0,
        "m_ramp_out_is_relative_to_full_size": false,
        "m_kfs_vector": []
      },
      "pos": [
        44,
        2
      ]
    },
    {
      "id": 83,
      "plugin": "Core",
      "version": "1.1.6",
      "model": "MIDIToCVInterface",
      "params": [],
      "leftModuleId": 1,
      "rightModuleId": 98,
      "data": {
        "channels": 8,
        "polyMode": 0,
        "clockDivision": 24,
        "lastPitch": 8192,
        "lastMod": 0,
        "midi": {
          "driver": 4,
          "channel": -1
        }
      },
      "pos": [
        119,
        1
      ]
    },
    {
      "id": 84,
      "plugin": "Bogaudio",
      "version": "1.1.37",
      "model": "Bogaudio-AddrSeq",
      "params": [
        {
          "id": 0,
          "value": 8.0
        },
        {
          "id": 1,
          "value": 1.0
        },
        {
          "id": 2,
          "value": 0.482210904
        },
        {
          "id": 3,
          "value": 0.554063678
        },
        {
          "id": 4,
          "value": -0.834652066
        },
        {
          "id": 5,
          "value": -0.966385961
        },
        {
          "id": 6,
          "value": 0.0692099333
        },
        {
          "id": 7,
          "value": 0.515239477
        },
        {
          "id": 8,
          "value": 0.199589849
        },
        {
          "id": 9,
          "value": -0.496448159
        },
        {
          "id": 10,
          "value": 0.273223996
        }
      ],
      "rightModuleId": 85,
      "data": {
        "poly_input": 0,
        "select_on_clock": false,
        "triggered_select": false,
        "reverse_on_negative_clock": false,
        "range_offset": 0.0,
        "range_scale": 10.0
      },
      "pos": [
        36,
        3
      ]
    },
    {
      "id": 85,
      "plugin": "Bogaudio",
      "version": "1.1.37",
      "model": "Bogaudio-AddrSeq",
      "params": [
        {
          "id": 0,
          "value": 8.0
        },
        {
          "id": 1,
          "value": 1.0
        },
        {
          "id": 2,
          "value": 0.0
        },
        {
          "id": 3,
          "value": 0.904935956
        },
        {
          "id": 4,
          "value": 0.858974934
        },
        {
          "id": 5,
          "value": -0.0111259222
        },
        {
          "id": 6,
          "value": -0.0759181976
        },
        {
          "id": 7,
          "value": -0.266404271
        },
        {
          "id": 8,
          "value": -0.540231466
        },
        {
          "id": 9,
          "value": 0.730747104
        },
        {
          "id": 10,
          "value": -0.911970019
        }
      ],
      "leftModuleId": 84,
      "rightModuleId": 88,
      "data": {
        "poly_input": 0,
        "select_on_clock": false,
        "triggered_select": false,
        "reverse_on_negative_clock": false,
        "range_offset": 0.0,
        "range_scale": 10.0
      },
      "pos": [
        42,
        3
      ]
    },
    {
      "id": 86,
      "plugin": "Bogaudio",
      "version": "1.1.37",
      "model": "Bogaudio-EightOne",
      "params": [
        {
          "id": 0,
          "value": 8.0
        },
        {
          "id": 1,
          "value": 1.0
        },
        {
          "id": 2,
          "value": 0.0
        }
      ],
      "leftModuleId": 93,
      "data": {
        "poly_input": 8,
        "select_on_clock": false,
        "triggered_select": false,
        "reverse_on_negative_clock": false
      },
      "pos": [
        84,
        3
      ]
    },
    {
      "id": 87,
      "plugin": "Bogaudio",
      "version": "1.1.37",
      "model": "Bogaudio-Shaper",
      "params": [
        {
          "id": 0,
          "value": 0.0
        },
        {
          "id": 1,
          "value": 0.0
        },
        {
          "id": 2,
          "value": 0.140730396
        },
        {
          "id": 3,
          "value": 0.0
        },
        {
          "id": 4,
          "value": 1.0
        },
        {
          "id": 5,
          "value": 0.205000088
        },
        {
          "id": 6,
          "value": 0.0
        },
        {
          "id": 7,
          "value": 1.0
        },
        {
          "id": 8,
          "value": 1.0
        }
      ],
      "data": {
        "triggerOnLoad": true,
        "shouldTriggerOnLoad": true
      },
      "pos": [
        67,
        2
      ]
    },
    {
      "id": 88,
      "plugin": "Bogaudio",
      "version": "1.1.37",
      "model": "Bogaudio-AddrSeq",
      "params": [
        {
          "id": 0,
          "value": 8.0
        },
        {
          "id": 1,
          "value": 1.0
        },
        {
          "id": 2,
          "value": 0.0
        },
        {
          "id": 3,
          "value": -0.822796106
        },
        {
          "id": 4,
          "value": 0.0354038477
        },
        {
          "id": 5,
          "value": 0.510606885
        },
        {
          "id": 6,
          "value": -0.718530774
        },
        {
          "id": 7,
          "value": 0.072196722
        },
        {
          "id": 8,
          "value": 0.157425165
        },
        {
          "id": 9,
          "value": -0.564518809
        },
        {
          "id": 10,
          "value": 0.614734054
        }
      ],
      "leftModuleId": 85,
      "rightModuleId": 89,
      "data": {
        "poly_input": 0,
        "select_on_clock": false,
        "triggered_select": false,
        "reverse_on_negative_clock": false,
        "range_offset": 0.0,
        "range_scale": 10.0
      },
      "pos": [
        48,
        3
      ]
    },
    {
      "id": 89,
      "plugin": "Bogaudio",
      "version": "1.1.37",
      "model": "Bogaudio-AddrSeq",
      "params": [
        {
          "id": 0,
          "value": 8.0
        },
        {
          "id": 1,
          "value": 1.0
        },
        {
          "id": 2,
          "value": 0.0
        },
        {
          "id": 3,
          "value": -0.279289722
        },
        {
          "id": 4,
          "value": -0.767605066
        },
        {
          "id": 5,
          "value": -0.655329227
        },
        {
          "id": 6,
          "value": 0.456281185
        },
        {
          "id": 7,
          "value": -0.801692724
        },
        {
          "id": 8,
          "value": 0.492931843
        },
        {
          "id": 9,
          "value": -0.179807305
        },
        {
          "id": 10,
          "value": -0.325254083
        }
      ],
      "leftModuleId": 88,
      "rightModuleId": 90,
      "data": {
        "poly_input": 0,
        "select_on_clock": false,
        "triggered_select": false,
        "reverse_on_negative_clock": false,
        "range_offset": 0.0,
        "range_scale": 10.0
      },
      "pos": [
        54,
        3
      ]
    },
    {
      "id": 90,
      "plugin": "Bogaudio",
      "version": "1.1.37",
      "model": "Bogaudio-AddrSeq",
      "params": [
        {
          "id": 0,
          "value": 8.0
        },
        {
          "id": 1,
          "value": 1.0
        },
        {
          "id": 2,
          "value": 0.0
        },
        {
          "id": 3,
          "value": 0.512158751
        },
        {
          "id": 4,
          "value": 0.703750372
        },
        {
          "id": 5,
          "value": -0.681227088
        },
        {
          "id": 6,
          "value": -0.705430984
        },
        {
          "id": 7,
          "value": -0.256568551
        },
        {
          "id": 8,
          "value": 0.146057725
        },
        {
          "id": 9,
          "value": -0.726856112
        },
        {
          "id": 10,
          "value": -0.68156302
        }
      ],
      "leftModuleId": 89,
      "rightModuleId": 91,
      "data": {
        "poly_input": 0,
        "select_on_clock": false,
        "triggered_select": false,
        "reverse_on_negative_clock": false,
        "range_offset": 0.0,
        "range_scale": 10.0
      },
      "pos": [
        60,
        3
      ]
    },
    {
      "id": 91,
      "plugin": "Bogaudio",
      "version": "1.1.37",
      "model": "Bogaudio-AddrSeq",
      "params": [
        {
          "id": 0,
          "value": 8.0
        },
        {
          "id": 1,
          "value": 1.0
        },
        {
          "id": 2,
          "value": 0.0
        },
        {
          "id": 3,
          "value": -0.395203948
        },
        {
          "id": 4,
          "value": 0.670225501
        },
        {
          "id": 5,
          "value": 0.322270393
        },
        {
          "id": 6,
          "value": -0.704769731
        },
        {
          "id": 7,
          "value": -0.733942389
        },
        {
          "id": 8,
          "value": 0.57843101
        },
        {
          "id": 9,
          "value": -0.794340611
        },
        {
          "id": 10,
          "value": -0.773918867
        }
      ],
      "leftModuleId": 90,
      "rightModuleId": 92,
      "data": {
        "poly_input": 0,
        "select_on_clock": false,
        "triggered_select": false,
        "reverse_on_negative_clock": false,
        "range_offset": 0.0,
        "range_scale": 10.0
      },
      "pos": [
        66,
        3
      ]
    },
    {
      "id": 92,
      "plugin": "Bogaudio",
      "version": "1.1.37",
      "model": "Bogaudio-AddrSeq",
      "params": [
        {
          "id": 0,
          "value": 8.0
        },
        {
          "id": 1,
          "value": 1.0
        },
        {
          "id": 2,
          "value": 0.0104999999
        },
        {
          "id": 3,
          "value": -0.932350278
        },
        {
          "id": 4,
          "value": -0.215583086
        },
        {
          "id": 5,
          "value": 0.819389939
        },
        {
          "id": 6,
          "value": -0.456827521
        },
        {
          "id": 7,
          "value": 0.477178931
        },
        {
          "id": 8,
          "value": 0.755453706
        },
        {
          "id": 9,
          "value": 0.430644751
        },
        {
          "id": 10,
          "value": -0.824703217
        }
      ],
      "leftModuleId": 91,
      "rightModuleId": 93,
      "data": {
        "poly_input": 0,
        "select_on_clock": false,
        "triggered_select": false,
        "reverse_on_negative_clock": false,
        "range_offset": 0.0,
        "range_scale": 10.0
      },
      "pos": [
        72,
        3
      ]
    },
    {
      "id": 93,
      "plugin": "Bogaudio",
      "version": "1.1.37",
      "model": "Bogaudio-AddrSeq",
      "params": [
        {
          "id": 0,
          "value": 8.0
        },
        {
          "id": 1,
          "value": 1.0
        },
        {
          "id": 2,
          "value": 0.0
        },
        {
          "id": 3,
          "value": -0.894675136
        },
        {
          "id": 4,
          "value": -0.693179488
        },
        {
          "id": 5,
          "value": -0.76154685
        },
        {
          "id": 6,
          "value": -0.881201267
        },
        {
          "id": 7,
          "value": 0.0264831781
        },
        {
          "id": 8,
          "value": -0.695353389
        },
        {
          "id": 9,
          "value": 0.2752496
        },
        {
          "id": 10,
          "value": 0.133153558
        }
      ],
      "leftModuleId": 92,
      "rightModuleId": 86,
      "data": {
        "poly_input": 0,
        "select_on_clock": false,
        "triggered_select": false,
        "reverse_on_negative_clock": false,
        "range_offset": 0.0,
        "range_scale": 10.0
      },
      "pos": [
        78,
        3
      ]
    },
    {
      "id": 95,
      "plugin": "AudibleInstruments",
      "version": "1.5.0",
      "model": "Plaits",
      "params": [
        {
          "id": 0,
          "value": 0.0
        },
        {
          "id": 1,
          "value": 0.0
        },
        {
          "id": 2,
          "value": 0.0
        },
        {
          "id": 3,
          "value": 0.465499848
        },
        {
          "id": 4,
          "value": 0.530000806
        },
        {
          "id": 5,
          "value": 0.498499602
        },
        {
          "id": 6,
          "value": 0.0
        },
        {
          "id": 7,
          "value": 0.0
        },
        {
          "id": 8,
          "value": 0.0
        },
        {
          "id": 9,
          "value": 0.5
        },
        {
          "id": 10,
          "value": 0.5
        }
      ],
      "rightModuleId": 94,
      "data": {
        "lowCpu": false,
        "model": 14
      },
      "pos": [
        83,
        2
      ]
    },
    {
      "id": 96,
      "plugin": "ImpromptuModular",
      "version": "1.1.10",
      "model": "Clocked",
      "params": [
        {
          "id": 0,
          "value": 120.0
        },
        {
          "id": 1,
          "value": 5.0
        },
        {
          "id": 2,
          "value": 0.0
        },
        {
          "id": 3,
          "value": -17.0
        },
        {
          "id": 4,
          "value": 0.0
        },
        {
          "id": 5,
          "value": -0.00600000005
        },
        {
          "id": 6,
          "value": 0.0
        },
        {
          "id": 7,
          "value": 0.0
        },
        {
          "id": 8,
          "value": 1.0
        },
        {
          "id": 9,
          "value": 1.0
        },
        {
          "id": 10,
          "value": 0.5
        },
        {
          "id": 11,
          "value": 0.5
        },
        {
          "id": 12,
          "value": 0.0
        },
        {
          "id": 13,
          "value": 0.0
        },
        {
          "id": 14,
          "value": 0.0
        },
        {
          "id": 15,
          "value": 0.0
        },
        {
          "id": 16,
          "value": 0.0
        },
        {
          "id": 17,
          "value": 0.0
        },
        {
          "id": 18,
          "value": 0.0
        },
        {
          "id": 19,
          "value": 0.0
        }
      ],
      "data": {
        "panelTheme": 0,
        "running": false,
        "displayDelayNoteMode": true,
        "bpmDetectionMode": false,
        "resetOnStartStop": 0,
        "ppqn": 4,
        "resetClockOutputsHigh": true,
        "momentaryRunInput": true,
        "clockMaster": false
      },
      "pos": [
        16,
        2
      ]
    },
    {
      "id": 94,
      "plugin": "Bogaudio",
      "version": "1.1.37",
      "model": "Bogaudio-FMOp",
      "params": [
        {
          "id": 0,
          "value": -0.0150000006
        },
        {
          "id": 1,
          "value": -0.0390000008
        },
        {
          "id": 2,
          "value": 0.0
        },
        {
          "id": 3,
          "value": 0.172230184
        },
        {
          "id": 4,
          "value": 0.318999946
        },
        {
          "id": 5,
          "value": 0.316229999
        },
        {
          "id": 6,
          "value": 0.0
        },
        {
          "id": 7,
          "value": 0.925500512
        },
        {
          "id": 8,
          "value": 1.0
        },
        {
          "id": 9,
          "value": 1.0
        },
        {
          "id": 10,
          "value": 0.0
        },
        {
          "id": 11,
          "value": 0.0
        }
      ],
      "leftModuleId": 95,
      "rightModuleId": 97,
      "data": {
        "linearLevel": false,
        "antialias_feedback": true,
        "antialias_depth": true
      },
      "pos": [
        95,
        2
      ]
    },
    {
      "id": 97,
      "plugin": "Bogaudio",
      "version": "1.1.37",
      "model": "Bogaudio-EightFO",
      "params": [
        {
          "id": 0,
          "value": 0.0
        },
        {
          "id": 1,
          "value": 3.0
        },
        {
          "id": 2,
          "value": 0.0
        },
        {
          "id": 3,
          "value": 0.0
        },
        {
          "id": 4,
          "value": 0.0
        },
        {
          "id": 5,
          "value": 0.0
        },
        {
          "id": 6,
          "value": 0.0
        },
        {
          "id": 7,
          "value": 0.0
        },
        {
          "id": 8,
          "value": 0.0
        },
        {
          "id": 9,
          "value": 0.0
        },
        {
          "id": 10,
          "value": 0.0
        },
        {
          "id": 11,
          "value": 1.0
        },
        {
          "id": 12,
          "value": 0.0
        },
        {
          "id": 13,
          "value": 1.0
        },
        {
          "id": 14,
          "value": 0.0
        }
      ],
      "leftModuleId": 94,
      "data": {},
      "pos": [
        105,
        2
      ]
    },
    {
      "id": 98,
      "plugin": "Bogaudio",
      "version": "1.1.37",
      "model": "Bogaudio-FMOp",
      "params": [
        {
          "id": 0,
          "value": -0.0150000006
        },
        {
          "id": 1,
          "value": -0.0390000008
        },
        {
          "id": 2,
          "value": 0.0
        },
        {
          "id": 3,
          "value": 0.172230184
        },
        {
          "id": 4,
          "value": 1.0
        },
        {
          "id": 5,
          "value": 0.316229999
        },
        {
          "id": 6,
          "value": 0.0
        },
        {
          "id": 7,
          "value": 0.0
        },
        {
          "id": 8,
          "value": 1.0
        },
        {
          "id": 9,
          "value": 1.0
        },
        {
          "id": 10,
          "value": 0.0
        },
        {
          "id": 11,
          "value": 0.0
        }
      ],
      "leftModuleId": 83,
      "data": {
        "linearLevel": false,
        "antialias_feedback": true,
        "antialias_depth": true
      },
      "pos": [
        127,
        1
      ]
    }
  ],
  "cables": [
    {
      "id": 123,
      "outputModuleId": 5,
      "outputId": 0,
      "inputModuleId": 3,
      "inputId": 0,
      "color": "#c91847"
    },
    {
      "id": 124,
      "outputModuleId": 3,
      "outputId": 2,
      "inputModuleId": 4,
      "inputId": 3,
      "color": "#0c8e15"
    },
    {
      "id": 127,
      "outputModuleId": 6,
      "outputId": 0,
      "inputModuleId": 4,
      "inputId": 0,
      "color": "#c91847"
    },
    {
      "id": 128,
      "outputModuleId": 5,
      "outputId": 1,
      "inputModuleId": 6,
      "inputId": 4,
      "color": "#c9b70e"
    },
    {
      "id": 129,
      "outputModuleId": 6,
      "outputId": 0,
      "inputModuleId": 2,
      "inputId": 5,
      "color": "#0c8e15"
    },
    {
      "id": 130,
      "outputModuleId": 4,
      "outputId": 0,
      "inputModuleId": 2,
      "inputId": 1,
      "color": "#0986ad"
    },
    {
      "id": 131,
      "outputModuleId": 2,
      "outputId": 1,
      "inputModuleId": 7,
      "inputId": 0,
      "color": "#c9b70e"
    },
    {
      "id": 132,
      "outputModuleId": 5,
      "outputId": 6,
      "inputModuleId": 6,
      "inputId": 5,
      "color": "#c91847"
    },
    {
      "id": 133,
      "outputModuleId": 77,
      "outputId": 0,
      "inputModuleId": 76,
      "inputId": 0,
      "color": "#0c8e15"
    },
    {
      "id": 134,
      "outputModuleId": 77,
      "outputId": 4,
      "inputModuleId": 76,
      "inputId": 1,
      "color": "#c91847"
    },
    {
      "id": 135,
      "outputModuleId": 76,
      "outputId": 0,
      "inputModuleId": 77,
      "inputId": 0,
      "color": "#0986ad"
    },
    {
      "id": 136,
      "outputModuleId": 76,
      "outputId": 1,
      "inputModuleId": 77,
      "inputId": 1,
      "color": "#c9b70e"
    },
    {
      "id": 140,
      "outputModuleId": 78,
      "outputId": 2,
      "inputModuleId": 1,
      "inputId": 6,
      "color": "#c91847"
    },
    {
      "id": 141,
      "outputModuleId": 78,
      "outputId": 3,
      "inputModuleId": 1,
      "inputId": 7,
      "color": "#0986ad"
    },
    {
      "id": 154,
      "outputModuleId": 84,
      "outputId": 0,
      "inputModuleId": 86,
      "inputId": 0,
      "color": "#c91847"
    },
    {
      "id": 155,
      "outputModuleId": 85,
      "outputId": 0,
      "inputModuleId": 86,
      "inputId": 1,
      "color": "#0986ad"
    },
    {
      "id": 156,
      "outputModuleId": 86,
      "outputId": 0,
      "inputModuleId": 81,
      "inputId": 13,
      "color": "#c9b70e"
    },
    {
      "id": 159,
      "outputModuleId": 81,
      "outputId": 0,
      "inputModuleId": 87,
      "inputId": 0,
      "color": "#c9b70e"
    },
    {
      "id": 160,
      "outputModuleId": 88,
      "outputId": 0,
      "inputModuleId": 86,
      "inputId": 2,
      "color": "#0c8e15"
    },
    {
      "id": 161,
      "outputModuleId": 89,
      "outputId": 0,
      "inputModuleId": 86,
      "inputId": 3,
      "color": "#c91847"
    },
    {
      "id": 162,
      "outputModuleId": 90,
      "outputId": 0,
      "inputModuleId": 86,
      "inputId": 4,
      "color": "#0986ad"
    },
    {
      "id": 163,
      "outputModuleId": 91,
      "outputId": 0,
      "inputModuleId": 86,
      "inputId": 5,
      "color": "#c9b70e"
    },
    {
      "id": 164,
      "outputModuleId": 92,
      "outputId": 0,
      "inputModuleId": 86,
      "inputId": 6,
      "color": "#0c8e15"
    },
    {
      "id": 165,
      "outputModuleId": 93,
      "outputId": 0,
      "inputModuleId": 86,
      "inputId": 7,
      "color": "#c91847"
    },
    {
      "id": 184,
      "outputModuleId": 95,
      "outputId": 0,
      "inputModuleId": 78,
      "inputId": 6,
      "color": "#c91847"
    },
    {
      "id": 183,
      "outputModuleId": 96,
      "outputId": 1,
      "inputModuleId": 95,
      "inputId": 5,
      "color": "#0c8e15"
    },
    {
      "id": 180,
      "outputModuleId": 96,
      "outputId": 1,
      "inputModuleId": 1,
      "inputId": 5,
      "color": "#c91847"
    },
    {
      "id": 171,
      "outputModuleId": 96,
      "outputId": 1,
      "inputModuleId": 93,
      "inputId": 0,
      "color": "#c9b70e"
    },
    {
      "id": 170,
      "outputModuleId": 96,
      "outputId": 1,
      "inputModuleId": 92,
      "inputId": 0,
      "color": "#0986ad"
    },
    {
      "id": 169,
      "outputModuleId": 96,
      "outputId": 1,
      "inputModuleId": 91,
      "inputId": 0,
      "color": "#c91847"
    },
    {
      "id": 168,
      "outputModuleId": 96,
      "outputId": 1,
      "inputModuleId": 90,
      "inputId": 0,
      "color": "#0c8e15"
    },
    {
      "id": 167,
      "outputModuleId": 96,
      "outputId": 1,
      "inputModuleId": 89,
      "inputId": 0,
      "color": "#c9b70e"
    },
    {
      "id": 166,
      "outputModuleId": 96,
      "outputId": 1,
      "inputModuleId": 88,
      "inputId": 0,
      "color": "#0986ad"
    },
    {
      "id": 158,
      "outputModuleId": 96,
      "outputId": 1,
      "inputModuleId": 87,
      "inputId": 1,
      "color": "#c91847"
    },
    {
      "id": 157,
      "outputModuleId": 96,
      "outputId": 1,
      "inputModuleId": 85,
      "inputId": 0,
      "color": "#0c8e15"
    },
    {
      "id": 152,
      "outputModuleId": 96,
      "outputId": 1,
      "inputModuleId": 84,
      "inputId": 0,
      "color": "#0986ad"
    },
    {
      "id": 179,
      "outputModuleId": 96,
      "outputId": 4,
      "inputModuleId": 93,
      "inputId": 1,
      "color": "#c9b70e"
    },
    {
      "id": 178,
      "outputModuleId": 96,
      "outputId": 4,
      "inputModuleId": 92,
      "inputId": 1,
      "color": "#0986ad"
    },
    {
      "id": 177,
      "outputModuleId": 96,
      "outputId": 4,
      "inputModuleId": 91,
      "inputId": 1,
      "color": "#c91847"
    },
    {
      "id": 176,
      "outputModuleId": 96,
      "outputId": 4,
      "inputModuleId": 90,
      "inputId": 1,
      "color": "#0c8e15"
    },
    {
      "id": 175,
      "outputModuleId": 96,
      "outputId": 4,
      "inputModuleId": 89,
      "inputId": 1,
      "color": "#c9b70e"
    },
    {
      "id": 174,
      "outputModuleId": 96,
      "outputId": 4,
      "inputModuleId": 88,
      "inputId": 1,
      "color": "#0986ad"
    },
    {
      "id": 173,
      "outputModuleId": 96,
      "outputId": 4,
      "inputModuleId": 85,
      "inputId": 1,
      "color": "#c91847"
    },
    {
      "id": 172,
      "outputModuleId": 96,
      "outputId": 4,
      "inputModuleId": 84,
      "inputId": 1,
      "color": "#0c8e15"
    },
    {
      "id": 147,
      "outputModuleId": 87,
      "outputId": 0,
      "inputModuleId": 78,
      "inputId": 2,
      "color": "#c91847"
    },
    {
      "id": 181,
      "outputModuleId": 96,
      "outputId": 1,
      "inputModuleId": 94,
      "inputId": 5,
      "color": "#0986ad"
    },
    {
      "id": 182,
      "outputModuleId": 94,
      "outputId": 0,
      "inputModuleId": 78,
      "inputId": 4,
      "color": "#c9b70e"
    },
    {
      "id": 185,
      "outputModuleId": 97,
      "outputId": 0,
      "inputModuleId": 94,
      "inputId": 2,
      "color": "#0986ad"
    },
    {
      "id": 186,
      "outputModuleId": 83,
      "outputId": 0,
      "inputModuleId": 98,
      "inputId": 4,
      "color": "#c9b70e"
    },
    {
      "id": 187,
      "outputModuleId": 83,
      "outputId": 1,
      "inputModuleId": 98,
      "inputId": 5,
      "color": "#0c8e15"
    },
    {
      "id": 188,
      "outputModuleId": 98,
      "outputId": 0,
      "inputModuleId": 78,
      "inputId": 8,
      "color": "#c91847"
    },
    {
      "id": 146,
      "outputModuleId": 1,
      "outputId": 1,
      "inputModuleId": 81,
      "inputId": 0,
      "color": "#c9b70e"
    },
    {
      "id": 189,
      "outputModuleId": 96,
      "outputId": 1,
      "inputModuleId": 81,
      "inputId": 5,
      "color": "#0986ad"
    },
    {
      "id": 190,
      "outputModuleId": 96,
      "outputId": 3,
      "inputModuleId": 86,
      "inputId": 8,
      "color": "#c9b70e"
    },
    {
      "id": 191,
      "outputModuleId": 96,
      "outputId": 4,
      "inputModuleId": 86,
      "inputId": 9,
      "color": "#0c8e15"
    }
  ]
}